<mxfile>
    <diagram id="ZYGVRQs4a2gChUyEGK91" name="Page-1">
        <mxGraphModel dx="734" dy="256" grid="0" gridSize="10" guides="1" tooltips="1" connect="1" arrows="1" fold="1" page="1" pageScale="1" pageWidth="827" pageHeight="1169" math="0" shadow="0">
            <root>
                <mxCell id="0"/>
                <mxCell id="1" parent="0"/>
                <mxCell id="3n9zSRuVYzRCsIbC7iL8-54" value="" style="text;strokeColor=none;fillColor=none;align=left;verticalAlign=middle;spacingTop=-1;spacingLeft=4;spacingRight=4;rotatable=0;labelPosition=right;points=[];portConstraint=eastwest;" parent="1" vertex="1">
                    <mxGeometry x="320" y="620" width="20" height="14" as="geometry"/>
                </mxCell>
                <mxCell id="6yq3YjC9SRu9V7sOjZMM-5" value="CarRental" style="swimlane;fontStyle=1;align=center;verticalAlign=top;childLayout=stackLayout;horizontal=1;startSize=26;horizontalStack=0;resizeParent=1;resizeParentMax=0;resizeLast=0;collapsible=1;marginBottom=0;" parent="1" vertex="1">
                    <mxGeometry x="241" y="375" width="160" height="185" as="geometry"/>
                </mxCell>
                <mxCell id="6yq3YjC9SRu9V7sOjZMM-6" value="+Â airConditioning : boolean&#10;+ numberOfDays : number&#10;+ color : string" style="text;strokeColor=none;fillColor=none;align=left;verticalAlign=top;spacingLeft=4;spacingRight=4;overflow=hidden;rotatable=0;points=[[0,0.5],[1,0.5]];portConstraint=eastwest;" parent="6yq3YjC9SRu9V7sOjZMM-5" vertex="1">
                    <mxGeometry y="26" width="160" height="61" as="geometry"/>
                </mxCell>
                <mxCell id="6yq3YjC9SRu9V7sOjZMM-7" value="" style="line;strokeWidth=1;fillColor=none;align=left;verticalAlign=middle;spacingTop=-1;spacingLeft=3;spacingRight=3;rotatable=0;labelPosition=right;points=[];portConstraint=eastwest;" parent="6yq3YjC9SRu9V7sOjZMM-5" vertex="1">
                    <mxGeometry y="87" width="160" height="8" as="geometry"/>
                </mxCell>
                <mxCell id="6yq3YjC9SRu9V7sOjZMM-8" value="+ constructor ();&#10;+ addAirConditioning ();&#10;+ addNumberOfDays ();&#10;+ addColor ();" style="text;strokeColor=none;fillColor=none;align=left;verticalAlign=top;spacingLeft=4;spacingRight=4;overflow=hidden;rotatable=0;points=[[0,0.5],[1,0.5]];portConstraint=eastwest;" parent="6yq3YjC9SRu9V7sOjZMM-5" vertex="1">
                    <mxGeometry y="95" width="160" height="90" as="geometry"/>
                </mxCell>
            </root>
        </mxGraphModel>
    </diagram>
</mxfile>